<svg xmlns="http://www.w3.org/2000/svg" viewBox="350 220 1800 2050"><path
        fill-rule="evenodd"
        clip-rule="evenodd"
        d="M1294.97,234.82c21.53,1.52,37.75,20.22,36.22,41.75c-1.52,21.53-20.22,37.76-41.75,36.23
		c-21.53-1.53-37.76-20.22-36.23-41.77C1254.74,249.5,1273.43,233.28,1294.97,234.82z"
        fill="#b3c9b7"
      /><path
        fill-rule="evenodd"
        clip-rule="evenodd"
        d="M1706.57,430.38c14.78,15.73,13.43,41.02-2.3,55.8c-13.9,13.04-34.79,13.96-49.66,3.16
		c-6.57-7.21-13.89-13.7-20.83-20.55c-15.39-15.14-40.14-14.93-55.28,0.47c-13.37,13.57-14.78,34.42-4.35,49.54
		c35.39,33.81,65.47,73.11,88.9,116.53l-0.75,0.41c10.27,18.98,3.21,42.71-15.79,52.98c-16.65,9.02-36.97,4.68-48.63-9.35
		c-35.95-69.93-92.39-127.62-161.38-165.13c-13.7-11.95-17.61-32.28-8.29-48.71c10.63-18.78,34.5-25.4,53.28-14.75l0.42-0.73
		c6.43,3.64,12.76,7.46,18.98,11.42c17.15,6.29,36.93-0.2,46.8-16.42c11.21-18.45,5.35-42.5-13.1-53.71
		c-23.99-14.67-48.76-28.26-75-39.14c-14.75-10.43-20.72-30.09-13.29-47.35c8.52-19.83,31.9-29.83,51.73-21.3
		C1577.42,317.84,1648.29,368.14,1706.57,430.38z"
        fill="#b3c9b7"
      /><path
        fill-rule="evenodd"
        clip-rule="evenodd"
        d="M1707.32,756.91c6.79,30.87,11.4,62.69,11.78,95.53c0,21.89-17.91,38.77-39.31,39.08
		c-19.08,0.28-35.15-15.59-38.84-33.61c0-31.64-3.75-62.39-10.85-91.86c-0.34-18.2,12.14-34.72,30.59-38.81
		C1681.74,722.53,1702.63,735.83,1707.32,756.91z"
        fill="#b3c9b7"
      /><path
        fill-rule="evenodd"
        clip-rule="evenodd"
        d="M1510.21,684.35c12.02,17.92,6.57,42.66-11.37,54.69c-15.89,10.65-36.76,8.11-49.68-5.08
		c-15.92-25.54-36.62-47.79-60.86-65.51c-12.23-13.78-13.32-34.73-1.64-49.82c13.2-17.08,38.25-20.81,55.33-7.62
		C1468.46,631.6,1491.52,656.39,1510.21,684.35z"
        fill="#b3c9b7"
      /><path
        fill-rule="evenodd"
        clip-rule="evenodd"
        d="M1379.12,771.09c12.13,17.86,7.49,42.17-10.35,54.31c-17.86,12.13-42.17,7.49-54.31-10.37
		c-12.13-17.84-7.51-42.16,10.35-54.31C1342.67,748.59,1366.98,753.23,1379.12,771.09z"
        fill="#b3c9b7"
      /><path
        fill-rule="evenodd"
        clip-rule="evenodd"
        d="M1738.28,1248.85c85.88,107.09,137.22,243.01,137.22,390.94c0,345.45-280.05,625.5-625.5,625.5
		c-112.45,0-217.96-29.66-309.14-81.63c62.94-10.6,123.65-37.64,175.23-81.11c-91.59,70.23-223.13,63.72-307.31-19.41
		c-0.36-0.34-0.7-0.69-1.06-1.06l110.56-110.57c-48.46,48.46-120.22,58.44-178.33,30.43c-15.47-7.44-29.98-17.59-42.82-30.43
		l110.57-110.57c61.03-61.03,61.34-159.78,0-221.15l-37.15-37.15c61.36-61.36,160.11-61.03,221.15,0l118.41,118.41
		c-42.75-42.75-42.61-112.46,0.13-155.22c42.75-42.75,112.93-42.42,154.95-0.41l-77.95,77.95l135.09,135.09l29.13,29.13l-0.23,0.24
		c42.74,42.75,43.22,112.29,0.47,155.05l0.5,0.48c61.42-61.47,68.02-156.97,19.84-225.79c21.49-26.77,34.34-60.77,34.34-97.78
		c0-4.55-0.19-9.04-0.58-13.49c96.92,12.34,198.1-16.76,274.89-87.27c-91.93,80.92-232.08,77.66-320.12-9.8
		c-0.19-0.19-0.36-0.36-0.55-0.55l-129.43-129.43l-163.29,101.64c-51.31,31.96-118.55,16.75-150.79-35.01
		c0,0,473.53-294.58,481.56-299.8l3.77-2.35l-0.48,0.24c87.98-55.22,204.62-46.43,283.48,26.35c1.16,1.06,2.31,2.14,3.46,3.25
		C1706.04,1210.96,1722.72,1229.44,1738.28,1248.85z M1182.82,1977.62l91.93-91.93l-64.79-64.79L1182.82,1977.62z M987.37,1855.24
		c0-23.57-9.04-45.04-23.83-61.13c-14.81,16.09-23.85,37.56-23.85,61.13c0,23.56,9.04,45.04,23.85,61.13
		C978.33,1900.27,987.37,1878.8,987.37,1855.24z"
        fill="#b3c9b7"
      /><path
        fill-rule="evenodd"
        clip-rule="evenodd"
        d="M1365.84,404.12c20.94,5.3,33.61,26.57,28.29,47.49c-4.64,18.34-21.55,30.34-39.74,29.46
		c-33.23-9.19-68.24-14.1-104.4-14.1c-21.27,0-42,2.52-62.33,5.79c-21.3,3.5-35.75,23.6-32.26,44.91
		c3.08,18.73,19,32.17,37.31,32.73c18.56-3.44,37.72-5.24,57.28-5.24c17.62,0,34.9,1.52,51.74,4.33
		c21.28,3.61,35.61,23.8,31.99,45.08c-3.5,20.63-22.58,34.73-43.13,32.28c-12.1-1.92-27.96-3.5-40.61-3.5
		c-56.69,0-108.16,20.7-148.71,54.18c-16.62,13.79-18.91,38.44-5.11,55.04c13.15,15.86,36.18,18.67,52.7,6.9
		c27.49-23.19,63.13-37.15,101.91-37.15c21.59,0,39.09,17.5,39.09,39.09c0,21.59-17.5,39.09-39.09,39.09
		c-43.19,0-78.19,34.65-78.19,77.41c0,30.74,18.09,57.3,44.32,69.79l-0.08,0.16c75.33,35.73,126.8,101.47,146.91,176.19
		c-90.92,56.59-234.63,146.02-322.13,200.46c-49.15-3.3-96.12-14.54-139.66-32.45c-35.31-14.51-68.33-33.42-98.42-56.03
		c-30.13-22.63-57.3-48.98-80.83-78.34c-61.47-76.64-98.2-173.9-98.2-279.77c0-297.03,207.06-545.72,484.68-609.58l0.2,0.89
		c21.03-4.88,42.05,8.21,46.93,29.23c4.27,18.37-5.18,36.75-21.67,44.33c-49.99,10.73-97.03,29.05-140.93,52.42
		c-19.06,10.15-26.27,33.83-16.12,52.89c8.88,16.67,28.12,24.29,45.55,19.11c67.23-37.22,144.57-58.41,226.85-58.41
		C1290.06,388.78,1328.73,394.66,1365.84,404.12z"
        fill="#b3c9b7"
      /></svg>